<svg xmlns="http://www.w3.org/2000/svg" width="100%" height="100%" viewBox="0 0 587.461 327.104">
    <defs>
        <style>
            .a,.b,.d{stroke:#fff;}.a,.c,.d{stroke-miterlimit:10;}.b,.d{stroke-linejoin:round;}.c,.e{fill:#fff;}.c{stroke:#000;stroke-width:0.25px;}.d{stroke-linecap:square;stroke-width:0.75px;}</style>
    </defs>
    <g transform="translate(-625 -297.335)">
        <g transform="translate(629.326 539.605)">
            <path class="a" d="M662.56,518.816H991.579L954.725,442.5H630.5Z"
                transform="translate(-625.972 -442.5)" />
            <path class="b" d="M832.994,488.481l-133.235,1.136L696,478.674l131.982-.434Z"
                transform="translate(-582.044 -418.531)" />
            <path class="b" d="M671.763,489.038l-17.893.267-4.511-10.458,17.909-.267Z"
                transform="translate(-613.324 -418.303)" />
            <path class="b" d="M686.914,488.868l-17.893.267-4.511-10.442,17.893-.284Z"
                transform="translate(-603.163 -418.417)" />
            <path class="b" d="M701.924,488.868l-17.893.267-4.511-10.442,17.893-.284Z"
                transform="translate(-593.097 -418.417)" />
            <path class="b" d="M819.483,488.682l-17.909.267-4.494-10.442,17.893-.267Z"
                transform="translate(-514.254 -418.531)" />
            <path class="b" d="M822.7,480.058l-14.9.267-3.759-10.458,14.9-.267Z"
                transform="translate(-509.587 -424.325)" />
            <path class="b" d="M808.811,480.058l-14.9.267-3.759-10.458,14.9-.267Z"
                transform="translate(-518.902 -424.325)" />
            <path class="b" d="M794.915,480.058l-14.9.267-3.742-10.458,14.9-.267Z"
                transform="translate(-528.211 -424.325)" />
            <path class="b" d="M781.255,480.058l-14.9.267-3.742-10.458L777.5,469.6Z"
                transform="translate(-537.372 -424.325)" />
            <path class="b" d="M767.321,480.058l-14.9.267-3.759-10.458,14.9-.267Z"
                transform="translate(-546.728 -424.325)" />
            <path class="b" d="M753.385,480.058l-14.9.267-3.742-10.458,14.9-.267Z"
                transform="translate(-556.063 -424.325)" />
            <path class="b" d="M739.695,480.058l-14.9.267-3.742-10.458,14.9-.267Z"
                transform="translate(-565.244 -424.325)" />
            <path class="b" d="M726.734,480.058l-14.9.267-3.742-10.458,14.885-.267Z"
                transform="translate(-573.936 -424.325)" />
            <path class="b" d="M712.575,480.058l-14.9.267-3.742-10.458,14.9-.267Z"
                transform="translate(-583.433 -424.325)" />
            <path class="b" d="M698.441,480.058l-14.9.267-3.759-10.458,14.9-.267Z"
                transform="translate(-592.922 -424.325)" />
            <path class="b" d="M685.291,480.058l-14.9.267-3.759-10.458,14.9-.267Z"
                transform="translate(-601.742 -424.325)" />
            <path class="b" d="M676.849,470.178l-14.067.267-3.542-10.458,14.067-.267Z"
                transform="translate(-606.698 -430.951)" />
            <path class="b" d="M689.139,470.178l-14.067.267-3.542-10.458,14.067-.267Z"
                transform="translate(-598.455 -430.951)" />
            <path class="b" d="M701.109,470.092l-14.067.284L683.5,459.917l14.067-.267Z"
                transform="translate(-590.428 -430.998)" />
            <path class="b" d="M713.409,470.092l-14.067.284L695.8,459.917l14.067-.267Z"
                transform="translate(-582.178 -430.998)" />
            <path class="b" d="M726.009,470.092l-14.067.284L708.4,459.917l14.067-.267Z"
                transform="translate(-573.728 -430.998)" />
            <path class="b" d="M738.969,470.178l-14.067.267-3.542-10.458,14.067-.267Z"
                transform="translate(-565.036 -430.951)" />
            <path class="b" d="M750.915,470.092l-14.084.284-3.542-10.458,14.084-.267Z"
                transform="translate(-557.036 -430.998)" />
            <path class="b" d="M763.525,470.092l-14.083.284L745.9,459.917l14.084-.267Z"
                transform="translate(-548.578 -430.998)" />
            <path class="b" d="M776.585,470.178l-14.084.267-3.542-10.458,14.084-.267Z"
                transform="translate(-539.82 -430.951)" />
            <path class="b" d="M788.615,470.178l-14.067.267-3.559-10.458,14.084-.267Z"
                transform="translate(-531.752 -430.951)" />
            <path class="b" d="M801.216,470.092l-14.084.284-3.542-10.458,14.084-.267Z"
                transform="translate(-523.301 -430.998)" />
            <path class="b" d="M813.659,470.092l-14.067.284-3.542-10.458,14.067-.267Z"
                transform="translate(-514.945 -430.998)" />
            <path class="b" d="M825.175,470.092l-14.084.284-3.542-10.458,14.084-.267Z"
                transform="translate(-507.232 -430.998)" />
            <path class="b" d="M835.454,488.134l-17.91.267-4.494-9.974,17.893-.267Z"
                transform="translate(-503.544 -418.584)" />
            <path class="b" d="M851.894,488.682,834,488.949l-4.511-10.442,17.893-.267Z"
                transform="translate(-492.518 -418.531)" />
            <path class="b" d="M803.134,488.888l-17.909.267L780.73,478.7l17.893-.267Z"
                transform="translate(-525.219 -418.403)" />
            <path class="b" d="M679.335,479.592H648.394L643.9,469.15h30.924Z"
                transform="translate(-616.986 -424.627)" />
            <path class="b" d="M844.973,470.179l-21.752-.251L818.71,459.47l21.752.251Z"
                transform="translate(-499.748 -431.119)" />
            <path class="b" d="M852.355,478.758H821.431L816.92,468.3h30.941Z"
                transform="translate(-500.948 -425.197)" />
            <path class="b" d="M667.882,470.192l-21.451.184-4.511-10.458,21.468-.167Z"
                transform="translate(-618.314 -430.931)" />
            <path class="b" d="M834.72,459.246l-16.54.384L813.77,448.6l16.539-.384Z"
                transform="translate(-503.061 -438.664)" />
            <path class="b" d="M820.25,459.246l-16.539.384L799.3,448.6l16.539-.384Z"
                transform="translate(-512.765 -438.664)" />
            <path class="b" d="M804.83,459.246l-16.523.384L783.88,448.6l16.54-.384Z"
                transform="translate(-523.107 -438.664)" />
            <path class="b" d="M790.95,459.246l-16.539.384L770,448.6l16.539-.384Z"
                transform="translate(-532.416 -438.664)" />
            <path class="b" d="M776.6,459.246l-16.54.384L755.65,448.6l16.539-.384Z"
                transform="translate(-542.04 -438.664)" />
            <path class="b" d="M762.66,459.19l-16.539.384-4.411-11.026,16.539-.368Z"
                transform="translate(-551.388 -438.691)" />
            <path class="b" d="M734.04,458.726l-16.54.368-4.411-11.026,16.539-.368Z"
                transform="translate(-570.583 -439.013)" />
            <path class="b" d="M748.85,458.726l-16.539.368-4.41-11.026,16.539-.368Z"
                transform="translate(-560.65 -439.013)" />
            <path class="b" d="M718.77,458.686l-16.539.384-4.411-11.026,16.54-.384Z"
                transform="translate(-580.824 -439.039)" />
            <path class="b" d="M704.63,458.686l-16.539.384-4.411-11.026,16.523-.384Z"
                transform="translate(-590.307 -439.039)" />
            <path class="b" d="M689.73,458.686l-16.539.384-4.411-11.026,16.539-.384Z"
                transform="translate(-600.3 -439.039)" />
            <path class="b" d="M675.45,458.726l-16.539.368L654.5,448.068l16.54-.368Z"
                transform="translate(-609.877 -439.013)" />
            <path class="b" d="M659.6,459.246l-16.54.384L638.65,448.6l16.539-.384Z"
                transform="translate(-620.507 -438.664)" />
            <path class="b" d="M662.155,526.835l2.139-8.036-33.43-76.3-3.074,5.38Z"
                transform="translate(-627.79 -442.5)" />
            <path class="b" d="M979.6,496.2H648.36l2.222-8.019H979.6Z"
                transform="translate(-613.995 -411.864)" />
        </g>
        <g transform="translate(979.73 297.71)">
            <path class="a" d="M994.488,331.6,837.53,299.86h0l3.341,193.8L992.9,572.177h0Z"
                transform="translate(-837.53 -296.268)" />
            <path class="a" d="M1002.368,316.86l5.012,237.735-76.85,6.181h0L932.117,320.2Z"
                transform="translate(-775.159 -284.867)" />
            <path class="a" d="M972.428,352.467,931.48,319.806l68.4-2.406Z"
                transform="translate(-774.522 -284.505)" />
            <circle class="a" cx="5.162" cy="5.162" r="5.162" transform="translate(189.536 41.917)" />
            <rect class="c" width="1.821" height="8.504" transform="translate(193.796 38.876)" />
            <rect class="c" width="2.506" height="10.458" rx="0.75"
                transform="translate(223.2 196.119)" />
            <rect class="c" width="2.506" height="10.458" rx="0.75"
                transform="translate(223.2 182.703)" />
            <path class="d"
                d="M994.482,332.777l70.234-3.325h0L892.655,297.71l-55.115,3.341h0L994.5,332.76Z"
                transform="translate(-837.523 -297.71)" />
        </g>
        <g transform="translate(625.5 307.383)">
            <ellipse class="a" cx="25.06" cy="15.036" rx="25.06" ry="15.036"
                transform="translate(129.96 193.446)" />
            <path class="a"
                d="M709.5,438.242s5.012,1.587,3.341-15.036S709.5,406.5,709.5,406.5h30.072s-8.353,31.742,0,31.742"
                transform="translate(-569.165 -234.422)" />
            <rect class="a" width="307.401" height="190.455" rx="2" />
            <rect class="a" width="287.821" height="172.078" transform="translate(10.024 8.353)" />
        </g>
        <g transform="translate(1003.029 546.822)">
            <path
                d="M878.024,499.855c-13,0-22.036-8.821-23.038-22.487a92.706,92.706,0,0,0-1.771-11.628c-1.153-5.78-2.072-10.358,0-13.432,1.487-2.205,4.477-3.692,9.422-4.644a18.611,18.611,0,0,1,3.442-.334c11.912,0,20.683,12.831,27.967,24.843,4.243,6.983,5.3,13.3,3.091,18.277-2,4.511-6.583,7.568-13.232,8.821a31.267,31.267,0,0,1-5.881.568Z"
                transform="translate(-851.137 -446.478)" />
            <path class="e"
                d="M866.4,448.507c11.477,0,20.1,12.614,27.265,24.442,4.093,6.733,5.129,12.8,3.041,17.509-1.888,4.26-6.265,7.134-12.614,8.337a31.062,31.062,0,0,1-5.73.551c-12.513,0-21.234-8.52-22.2-21.719a93.793,93.793,0,0,0-1.788-11.728c-1.119-5.6-2-10.024-.134-12.8,1.337-1.988,4.243-3.391,8.888-4.294a16.982,16.982,0,0,1,3.275-.317m0-1.671a19.1,19.1,0,0,0-3.592.351c-17.893,3.458-9.556,13.716-8.32,30.573,1.052,14.4,10.675,23.272,23.874,23.272a31.745,31.745,0,0,0,6.031-.585c14.384-2.723,19.463-13.9,10.692-28.368C887.3,459.216,878.564,446.82,866.4,446.82h0Z"
                transform="translate(-851.476 -446.82)" />
        </g>
    </g>
</svg>