<svg id="Java_logo" data-name="Java logo" xmlns="http://www.w3.org/2000/svg" width="235" height="235"
  viewBox="0 0 235 235" xml:space="preserve">
  <g id="Layer_1" data-name="Layer 1">
    <rect id="Rectangle_23" data-name="Rectangle 23" width="235" height="235" />
  </g>
  <g id="Java_logo-2" data-name="Java logo">
    <g id="plate">
      <path id="bottom"
        d="M82.82,174.85c.35-1.06,4.74-.84,8.56-.57s16.23.79,28.94.66c7.37-.08,18-.79,23.99-2.12s14.17-3.35,19.5-6.53c.96-.57,1.79-1.36,2.75-1.92.5-.29.84-.77,1.75-.43s.49,1.34.33,1.89a11.168,11.168,0,0,1-3.89,5.37c-3.34,2.72-10.65,4.71-14.79,5.61-3.77.82-9.26,2.27-26.02,2.27s-41.47-3.18-41.12-4.24Z"
        fill="#fff" />
      <path id="Top"
        d="M158.26,159.53c1.76-.38-.52-2.54,1.23-3.3.98-.42,2.34,1.16,2.87,2.96a4.307,4.307,0,0,1-.39,3.36,8.823,8.823,0,0,1-3.31,2.58c-17.94,8.83-110.2,12.67-92.46-6.52,5.42-5.48,19.89-3.45,19.89-3.45s-12.94,1.78-11.85,5.88c1.09,3.39,57.07,6.35,84.02-1.52Z"
        fill="#fff" />
    </g>
    <path id="handle"
      d="M158.54,111.38c4.98,0,11.16,5.64,11.36,11.72.15,4.34-2.28,7.24-5.76,11.14s-12,7.64-18.27,6.7c3.38-6.14,11.69-8.64,14.48-15.49,3.57-9.82-11.94-7.82-12.46-10.27,1.86-3.17,5.67-3.81,10.65-3.81Z"
      fill="#fff" />
    <g id="mug">
      <path id="bottom-2" data-name="bottom"
        d="M97.95,147.89a74.444,74.444,0,0,0,32.17-.33s9.9,4.17,9.4,5.64-9.13,4.37-16.48,5.03-44.28.48-31.16-11.93c2.59-2.5,7.65-2.81,6.07,1.6Z"
        fill="#fff" />
      <path id="mid"
        d="M92.68,133.91c11.99,2.7,24.41,1.69,36.42-.43,2.25-.21,4.72-1.66,6.89-.68l5.76,5.02c-11.08,4.38-20.98,5.44-36.58,5.29-47.53-5.76-.92-19.61-12.59-9.81.03.2.07.41.1.61Z"
        fill="#fff" />
      <path id="top-2" data-name="top"
        d="M88.87,121.31c1.89.19,31.37.58,47.66-1.49,2.62-.3,8.49-1.64,9.15-.85s-1.44,2.57-2.68,3.07c-14.53,6.79-31.71,8.93-47.97,7.08-5.14-.59-10.24-1.03-15.05-2.94s-5.87-8.31-.77-10.55c5.78-2.54,15.53-3.37,19.27-2.31,7.02,1.99-7.32,1.3-12.24,3.98s.74,3.82,2.62,4.02Z"
        fill="#fff" />
    </g>
    <g id="Steam">
      <path id="right"
        d="M121.75,117.91c4.37-9.3,1.28-11.19-3.84-18.66-10.24-17.27,11.13-28.07,24.42-33.52,1.81-1.13,2.72.88,1.24,2.15-9.67,9.96-24.69,15.05-12.2,30,6.55,8.52-7.78,24.75-9.63,20.03Z"
        fill="#fff" />
      <path id="left"
        d="M135.42,49.08c1.53,19.52-29.36,24.61-27.73,41.56a76.836,76.836,0,0,0,6.83,20.68c1.28,1.87-.33,3.1-2.07,1.69-18.8-15.09-22.24-33.1-.69-47.63,10.18-6.61,18.01-14.1,17.69-27.81-.21-8.66,5.35,2.9,5.98,11.51Z"
        fill="#fff" />
    </g>
  </g>
</svg>