<svg xmlns="http://www.w3.org/2000/svg" width="43.368" height="62.953" viewBox="0 0 43.368 62.953" xml:space="preserve">
    <defs>
        <style>.a{fill:#fff;}.b{fill:none;stroke:#fff;stroke-miterlimit:10;stroke-width:0.25px;}</style>
    </defs>
    <!-- took more than 5 hours for me to realize I didnt add target="_top" to my <a href> link which kept opening my index link the same frame -->
    <a href="/index.html" target="_top">
    <g transform="translate(-101.94 -22.561)">
        <g transform="translate(101.982 52.635)">
            <path
                d="M121.629,72.505c-11.273,0-19.129-1.814-19.129-3.438s7.856-3.438,19.129-3.438,19.129,1.814,19.129,3.438S132.9,72.505,121.629,72.505Z"
                transform="translate(-102.147 -65.277)" />
            <path class="a"
                d="M121.482,65.836a75.386,75.386,0,0,1,13.644,1.094c4.263.826,5.139,1.779,5.139,1.983s-.868,1.158-5.139,1.983a75.33,75.33,0,0,1-13.644,1.094A75.386,75.386,0,0,1,107.837,70.9c-4.263-.826-5.139-1.779-5.139-1.983s.868-1.158,5.139-1.983a75.33,75.33,0,0,1,13.644-1.094m0-.706C110.724,65.13,102,66.824,102,68.92s8.724,3.79,19.482,3.79,19.482-1.694,19.482-3.79-8.724-3.79-19.482-3.79Z"
                transform="translate(-102 -65.13)" />
        </g>
        <g transform="translate(129.8 62.058)">
            <path
                d="M148.431,94.882c-3.318,0-6.021-3.445-6.021-7.673s2.7-7.673,6.021-7.673c.487,0,1-.014,1.518-.028s1.059-.028,1.588-.028c3.67,0,4.969.826,4.969,3.148,0,4.581-5.054,12.254-8.075,12.254Z"
                transform="translate(-141.704 -78.774)" />
            <path class="a"
                d="M151.243,79.892h0c3.607,0,4.263.826,4.263,2.442,0,4.1-4.75,11.548-7.369,11.548-2.929,0-5.315-3.127-5.315-6.967s2.386-6.967,5.315-6.967c.494,0,1.009-.014,1.539-.028s1.045-.028,1.567-.028m0-1.412c-1.052,0-2.125.056-3.106.056-3.713,0-6.727,3.748-6.727,8.379s3.014,8.379,6.727,8.379,8.781-8.329,8.781-12.96c0-3.4-2.746-3.854-5.675-3.854h0Z"
                transform="translate(-141.41 -78.48)" />
        </g>
        <g transform="translate(101.94 56.263)">
            <path
                d="M112.71,99.248a.538.538,0,0,1-.515-.374L103.47,71.79c4.27,1.179,12.24,1.56,18.451,1.666,1.341.021,2.59.035,3.755.035,4.793,0,10.976-.184,14.583-1.016l-9.635,26.413a.549.549,0,0,1-.508.36h-17.4Z"
                transform="translate(-102.39 -70.717)" />
            <path class="a"
                d="M104.079,72.331c4.532.967,11.7,1.3,17.385,1.391,1.306.021,2.569.035,3.769.035a85.852,85.852,0,0,0,13.482-.784L129.546,98.1H112.38l-8.3-25.771m-2.118-2.061c-.042,0-.014.049.021.169l9.091,28.22a1.25,1.25,0,0,0,1.186.861h17.4a1.242,1.242,0,0,0,1.172-.819l10.037-27.514c.042-.127.078-.176.035-.176-.233,0-2.52,1.348-15.677,1.348-1.165,0-2.407-.007-3.748-.035-16.644-.282-19.277-2.047-19.524-2.047h0Z"
                transform="translate(-101.94 -70.27)" />
        </g>
        <path class="b"
            d="M135.733,52.749s4.334-2.132,3.381-7.793-4.553-6.762-3.381-9.409,4.849-6.247,4.849-6.247"
            transform="translate(-9.872 -1.956)" />
        <path class="b"
            d="M126.233,46.1s4.334-2.132,3.381-7.793-4.553-6.762-3.381-9.409,4.849-6.247,4.849-6.247"
            transform="translate(-7.077)" />
        <path class="b"
            d="M114.773,52.749s4.334-2.132,3.381-7.793-4.553-6.762-3.381-9.409,4.849-6.247,4.849-6.247"
            transform="translate(-3.707 -1.956)" />
    </g>
</a>
</svg>