<?xml version="1.0" encoding="UTF-8"?>
<svg id="uuid-f8e7c455-b8fb-466d-8950-6f7a1c02a200" data-name="Layer 2" xmlns="http://www.w3.org/2000/svg"
  viewBox="0 0 214.67 89.29" width="235" height="235" xml:space="preserve">
  <path
    d="m32.3,4.75c0-2.62-2.13-4.75-4.75-4.75h-11.4C7.23,0,0,7.23,0,16.15v56.99c0,8.92,7.23,16.15,16.15,16.15h11.4c2.62,0,4.75-2.13,4.75-4.75V4.75Zm-4.75-2.85c1.57,0,2.85,1.28,2.85,2.85v79.79c0,1.57-1.28,2.85-2.85,2.85h-11.4c-7.87,0-14.25-6.38-14.25-14.25V16.15C1.9,8.28,8.28,1.9,16.15,1.9h11.4Z"
    fill="#fff" fill-rule="evenodd" />
  <path
    d="m182.37,4.75c0-2.62,2.13-4.75,4.75-4.75h11.4c8.92,0,16.15,7.23,16.15,16.15v56.99c0,8.92-7.23,16.15-16.15,16.15h-11.4c-2.62,0-4.75-2.13-4.75-4.75V4.75Zm4.75-2.85c-1.57,0-2.85,1.28-2.85,2.85v79.79c0,1.57,1.28,2.85,2.85,2.85h11.4c7.87,0,14.25-6.38,14.25-14.25V16.15c0-7.87-6.38-14.25-14.25-14.25h-11.4Z"
    fill="#fff" fill-rule="evenodd" />
  <path
    d="m30.4,4.75c0-2.62,2.13-4.75,4.75-4.75h144.38c2.62,0,4.75,2.13,4.75,4.75v79.79c0,2.62-2.13,4.75-4.75,4.75H35.14c-2.62,0-4.75-2.13-4.75-4.75V4.75Zm4.75-2.85c-1.57,0-2.85,1.28-2.85,2.85v79.79c0,1.57,1.28,2.85,2.85,2.85h144.38c1.57,0,2.85-1.28,2.85-2.85V4.75c0-1.57-1.28-2.85-2.85-2.85H35.14Z"
    fill="#fff" fill-rule="evenodd" />
  <path
    d="m34.19,8.55c0-2.62,2.13-4.75,4.75-4.75h136.78c2.62,0,4.75,2.13,4.75,4.75v72.19c0,2.62-2.13,4.75-4.75,4.75H38.94c-2.62,0-4.75-2.13-4.75-4.75V8.55Zm4.75-2.85c-1.57,0-2.85,1.28-2.85,2.85v72.19c0,1.57,1.28,2.85,2.85,2.85h136.78c1.57,0,2.85-1.28,2.85-2.85V8.55c0-1.57-1.28-2.85-2.85-2.85H38.94Z"
    fill="#fff" fill-rule="evenodd" />
  <path
    d="m17.1,17.1c-3.15,0-5.7,2.55-5.7,5.7s2.55,5.7,5.7,5.7,5.7-2.55,5.7-5.7-2.55-5.7-5.7-5.7Zm-7.6,5.7c0-4.2,3.4-7.6,7.6-7.6s7.6,3.4,7.6,7.6-3.4,7.6-7.6,7.6-7.6-3.4-7.6-7.6Z"
    fill="#fff" fill-rule="evenodd" />
  <path
    d="m197.57,41.79c-3.15,0-5.7,2.55-5.7,5.7s2.55,5.7,5.7,5.7,5.7-2.55,5.7-5.7-2.55-5.7-5.7-5.7Zm-7.6,5.7c0-4.2,3.4-7.6,7.6-7.6s7.6,3.4,7.6,7.6-3.4,7.6-7.6,7.6-7.6-3.4-7.6-7.6Z"
    fill="#fff" fill-rule="evenodd" />
  <path
    d="m193.77,62.69c-1.05,0-1.9.85-1.9,1.9s.85,1.9,1.9,1.9,1.9-.85,1.9-1.9-.85-1.9-1.9-1.9Zm-3.8,1.9c0-2.1,1.7-3.8,3.8-3.8s3.8,1.7,3.8,3.8-1.7,3.8-3.8,3.8-3.8-1.7-3.8-3.8Z"
    fill="#fff" fill-rule="evenodd" />
  <path d="m190.92,5.7v5.7h-1.9v-5.7h1.9Z" fill="#fff" fill-rule="evenodd" />
  <path d="m27.55,9.5h-5.7v-1.9h5.7v1.9Z" fill="#fff" fill-rule="evenodd" />
  <path d="m192.82,9.5h-5.7v-1.9h5.7v1.9Z" fill="#fff" fill-rule="evenodd" />
  <path
    d="m17.1,37.99c-1.05,0-1.9.85-1.9,1.9s.85,1.9,1.9,1.9,1.9-.85,1.9-1.9-.85-1.9-1.9-1.9Zm-3.8,1.9c0-2.1,1.7-3.8,3.8-3.8s3.8,1.7,3.8,3.8-1.7,3.8-3.8,3.8-3.8-1.7-3.8-3.8Z"
    fill="#fff" fill-rule="evenodd" />
  <path
    d="m9.5,45.59c-1.05,0-1.9.85-1.9,1.9s.85,1.9,1.9,1.9,1.9-.85,1.9-1.9-.85-1.9-1.9-1.9Zm-3.8,1.9c0-2.1,1.7-3.8,3.8-3.8s3.8,1.7,3.8,3.8-1.7,3.8-3.8,3.8-3.8-1.7-3.8-3.8Z"
    fill="#fff" fill-rule="evenodd" />
  <path
    d="m17.1,53.19c-1.05,0-1.9.85-1.9,1.9s.85,1.9,1.9,1.9,1.9-.85,1.9-1.9-.85-1.9-1.9-1.9Zm-3.8,1.9c0-2.1,1.7-3.8,3.8-3.8s3.8,1.7,3.8,3.8-1.7,3.8-3.8,3.8-3.8-1.7-3.8-3.8Z"
    fill="#fff" fill-rule="evenodd" />
  <path
    d="m24.7,45.59c-1.05,0-1.9.85-1.9,1.9s.85,1.9,1.9,1.9,1.9-.85,1.9-1.9-.85-1.9-1.9-1.9Zm-3.8,1.9c0-2.1,1.7-3.8,3.8-3.8s3.8,1.7,3.8,3.8-1.7,3.8-3.8,3.8-3.8-1.7-3.8-3.8Z"
    fill="#fff" />
  <path
    d="m197.57,13.3c-1.05,0-1.9.85-1.9,1.9s.85,1.9,1.9,1.9,1.9-.85,1.9-1.9-.85-1.9-1.9-1.9Zm-3.8,1.9c0-2.1,1.7-3.8,3.8-3.8s3.8,1.7,3.8,3.8-1.7,3.8-3.8,3.8-3.8-1.7-3.8-3.8Z"
    fill="#fff" fill-rule="evenodd" />
  <path
    d="m189.97,20.9c-1.05,0-1.9.85-1.9,1.9s.85,1.9,1.9,1.9,1.9-.85,1.9-1.9-.85-1.9-1.9-1.9Zm-3.8,1.9c0-2.1,1.7-3.8,3.8-3.8s3.8,1.7,3.8,3.8-1.7,3.8-3.8,3.8-3.8-1.7-3.8-3.8Z"
    fill="#fff" fill-rule="evenodd" />
  <path
    d="m197.57,28.5c-1.05,0-1.9.85-1.9,1.9s.85,1.9,1.9,1.9,1.9-.85,1.9-1.9-.85-1.9-1.9-1.9Zm-3.8,1.9c0-2.1,1.7-3.8,3.8-3.8s3.8,1.7,3.8,3.8-1.7,3.8-3.8,3.8-3.8-1.7-3.8-3.8Z"
    fill="#fff" fill-rule="evenodd" />
  <path
    d="m205.17,20.9c-1.05,0-1.9.85-1.9,1.9s.85,1.9,1.9,1.9,1.9-.85,1.9-1.9-.85-1.9-1.9-1.9Zm-3.8,1.9c0-2.1,1.7-3.8,3.8-3.8s3.8,1.7,3.8,3.8-1.7,3.8-3.8,3.8-3.8-1.7-3.8-3.8Z"
    fill="#fff" fill-rule="evenodd" />
  <path
    d="m19,63.64c0-.52.43-.95.95-.95h3.8c.52,0,.95.43.95.95v3.8c0,.52-.43.95-.95.95h-3.8c-.52,0-.95-.43-.95-.95v-3.8Zm1.9.95v1.9h1.9v-1.9h-1.9Z"
    fill="#fff" fill-rule="evenodd" />
</svg>